<?xml version="1.0" encoding="utf-8"?>
<!-- Generator: Adobe Illustrator 26.0.1, SVG Export Plug-In . SVG Version: 6.00 Build 0)  -->
<svg version="1.1" id="Layer_1" xmlns="http://www.w3.org/2000/svg" xmlns:xlink="http://www.w3.org/1999/xlink" x="0px" y="0px"
	 viewBox="0 0 435 180" style="enable-background:new 0 0 435 180;" xml:space="preserve">
<style type="text/css">
	.st0{fill:#FFFFFF;}
</style>
<g>
	<g>
		<path class="st0" d="M116.4,111.4c0-1.5,0-3.1,0-4.6c0-0.8,0.2-1.1,1.1-1.1c4-0.2,4-0.2,4,3.8c0,2.4,0.2,4.8-0.2,7.2
			c-0.6,3.6-2.2,5.1-5.8,5c-1.5,0-1.6,0.5-1.4,1.7c0.4,1.9,1.1,2.7,3.1,3.1c0.4,0.1,0.9,0.1,1.3,0.1c4.5,0.1,5.4-0.8,5.7-5.3
			c0.3-4.8,0.7-9.7,1-14.5c0-0.8,0.3-1,1.1-1.1c4.4-0.3,4.4-0.3,4.1,4c-0.3,4.7-0.6,9.3-1,14c-0.4,4.6-2.9,7.1-7.5,7.5
			c-2.3,0.2-4.7,0.3-7-0.2c-3.6-0.7-5.7-3.1-6-7.1c-0.5-5.7-0.8-11.4-1.3-17.1c-0.1-0.8,0.1-1,0.9-1.1c4.2-0.3,4.3-0.3,4.7,3.8
			c0.2,2.5,0.4,5.1,0.6,7.7c0,0.5-0.3,1.3,0.6,1.5c0.8,0.1,1.5-0.3,1.8-1.1c0.5-1,0.3-2.1,0.4-3.2
			C116.5,113.4,116.4,112.4,116.4,111.4z"/>
		<path class="st0" d="M170.4,119.7c0,3.3-0.1,6.5,0,9.8c0,1.3-0.4,1.5-1.6,1.5c-4.1,0-4.1,0-4.1-4.1c0-4.7,0-9.5,0-14.2
			c0-1.4-0.3-1.9-1.8-1.9c-2.9,0.1-2.9,0-2.9,2.9c0,4.2,0,8.5,0,12.7c0,3.4-1.2,4.5-4.5,4.6c-0.2,0-0.3,0-0.5,0
			c-3.8,0-3.8,0-3.8-3.8c0-1,0.2-1.5,1.2-1.3c1.6,0.3,1.9-0.5,1.9-1.9c-0.1-3.9-0.1-7.8,0-11.8c0-1-0.2-1.6-1.3-1.4
			c-0.9,0.1-1.1-0.3-1.1-1.1c-0.1-4-0.2-4,3.8-4c3.5,0,7.1,0,10.6,0c3,0,4,1,4,4C170.5,113.1,170.4,116.4,170.4,119.7z"/>
		<path class="st0" d="M218.1,119.3c0,3.5,0,7,0,10.5c0,1.1-0.3,1.4-1.4,1.4c-4.3,0-4.3,0.1-4.3-4.2c0-4.8,0-9.6,0-14.4
			c0-1.2-0.2-1.7-1.6-1.7c-3.1,0.1-3.1,0-3.1,3.2c0,4.2,0,8.5,0,12.7c0,3.1-1.1,4.2-4.2,4.3c-1.1,0-2.2-0.1-3.3,0
			c-1.1,0.1-1.4-0.4-1.2-1.3c0.1-0.5,0.1-1.1,0-1.6c-0.2-1.6,0.1-2.5,2-2.2c0.9,0.2,1.1-0.4,1.1-1.2c0-4.3,0-8.6,0-12.9
			c0-1-0.5-1-1.2-1c-0.9,0.1-1.1-0.3-1.1-1.1c-0.1-4-0.2-4,3.8-4c3.5,0,7.1,0,10.6,0c3,0,3.9,1,4,3.9
			C218.1,112.8,218.1,116,218.1,119.3z"/>
		<path class="st0" d="M35.5,119.5c0,3.4,0,6.8,0,10.1c0,1-0.1,1.4-1.3,1.4c-4.3,0-4.3,0.1-4.3-4.3c0-4.7,0-9.5,0-14.2
			c0-1.4-0.4-1.8-1.8-1.7c-3,0.1-3,0-3,3.1c0,4.3,0,8.6,0,12.9c0,2.9-1.1,4-4,4.2c-0.4,0-0.9,0-1.3,0c-3.4,0-3.3,0-3.4-3.4
			c0-1.3,0.3-1.9,1.7-1.7c1.2,0.2,1.5-0.4,1.5-1.5c-0.1-4.1,0-8.3,0-12.4c0-0.9-0.3-1.3-1.2-1.2c-0.9,0.1-1.2-0.3-1.2-1.2
			c-0.1-3.9-0.1-3.9,3.8-3.9c3.6,0,7.2,0,10.8,0c2.7,0,3.7,1.1,3.8,3.8C35.5,112.9,35.5,116.2,35.5,119.5z"/>
		<path class="st0" d="M80.1,117.8c0.5-0.9,0.5-1.6,0.5-2.3c0-2.9,0-5.8,0-8.7c0-0.8,0.2-1.1,1.1-1.1c4.5-0.2,4.5-0.2,4.5,4.2
			c0,1.8,0,3.6,0,5.4c0,2.5-1.1,4.3-3.4,5.3c-0.9,0.4-0.9,0.7-0.4,1.4c0.9,1.4,1.7,2.9,2.6,4.4c0.8,1.5,1.7,2.9,2.7,4.7
			c-2.2,0-4.2,0-6.1,0c-0.6,0-0.7-0.7-1-1.2c-2.2-3.9-4.4-7.9-6.6-11.9c-0.7,0.5-0.5,1.2-0.5,1.8c0,3.3,0,6.6,0,10
			c0,1-0.3,1.3-1.3,1.3c-4.5,0.1-4.5,0.1-4.5-4.3c0-2,0-3.9,0-5.9c0-2.6,1-4.8,3.5-5.9c1-0.4,0.5-0.8,0.2-1.3
			c-1.3-2.3-2.6-4.5-3.9-6.8c-0.5-0.8-0.5-1.2,0.6-1.1c0.1,0,0.1,0,0.2,0c3.7-0.7,6.2,0.5,7.6,4.3C76.9,112.7,78.6,115.1,80.1,117.8
			z"/>
		<path class="st0" d="M253.2,131c-2.1,0-3.9,0-5.7,0c-0.9,0-1.1-0.6-1.4-1.2c-2-3.5-3.9-7-5.8-10.6c-0.3-0.5-0.4-1-0.9-1.3
			c-0.5,0.6-0.4,1.2-0.4,1.9c0,3.3,0,6.5,0,9.8c0,1-0.2,1.4-1.3,1.4c-4.4,0-4.4,0.1-4.4-4.3c0-2,0-4,0-6c0-2.6,1-4.7,3.5-5.8
			c0.9-0.4,0.7-0.8,0.3-1.3c-1.5-2.5-2.9-5.1-4.6-7.9c2.2,0,4.1,0,6,0c0.7,0,0.8,0.6,1.1,1.1c1.8,3.2,3.5,6.4,5.3,9.6
			c0.2,0.4,0.5,0.8,0.7,1.3c0.6-0.7,0.5-1.4,0.5-2.1c0-2.8,0-5.7,0-8.5c0-1,0.2-1.4,1.3-1.4c4.3,0,4.3-0.1,4.3,4.3
			c0,1.8,0,3.6,0,5.4c0,2.5-1.1,4.3-3.4,5.2c-1,0.4-0.7,0.8-0.4,1.4C249.7,124.9,251.3,127.8,253.2,131z"/>
		<path class="st0" d="M49.6,104.3c0-1.7,0-3.4,0-5.1c0-0.9,0.2-1.3,1.2-1.3c4.4-0.1,4.4-0.1,4.4,4.2c0,3.6,0,3.6,3.6,3.6
			c1.4,0,2.8,0,4.3,0c0.8,0,1.2,0.1,1,1.1c-0.8,6.3-1.3,12.6-2.4,18.8c-0.8,4.2-2.8,5.6-7.1,5.5c-0.9,0-1.1-0.3-1.1-1.2
			c0.1-0.7,0-1.4,0-2.1c0-0.9,0-1.5,1.2-1.6c1.1-0.1,1.5-1.2,1.7-2.2c0.5-4,0.9-8.1,1.4-12.2c0.1-0.8-0.2-1-1-1
			c-1.9,0-3.7-0.1-5.6,0c-1.4,0.1-1.7-0.4-1.7-1.7C49.7,107.5,49.6,105.9,49.6,104.3z"/>
		<path class="st0" d="M254.9,104.3c0-1.7,0-3.5,0-5.2c0-0.8,0.2-1.1,1.1-1.2c4.5-0.2,4.5-0.2,4.5,4.3c0,3.6,0,3.6,3.6,3.6
			c1.4,0,2.7,0,4.1,0c0.9,0,1.3,0.2,1.1,1.2c-0.8,6.1-1.4,12.3-2.3,18.5c-0.6,4.3-2.8,5.9-7.1,5.7c-0.8,0-1.2-0.3-1.1-1.1
			c0.1-0.7,0-1.4,0-2.1c0-0.9-0.1-1.5,1.2-1.6c1.2-0.1,1.5-1.3,1.6-2.4c0.4-3.3,0.8-6.7,1.2-10c0.3-2.9,0.2-2.9-2.7-2.9
			c-1.3,0-2.5-0.1-3.8,0c-1.3,0.1-1.6-0.4-1.5-1.6C255,107.6,254.9,106,254.9,104.3z"/>
		<path class="st0" d="M55.9,73.2c0.2-0.9,0.3-1.5,0.5-2c0.7-2.9,2.2-4,5.1-4c1.2,0,2.4,0,3.6,0.2c2.1,0.3,3.1,1.4,3.5,3.5
			c0.3,1.8,0.1,3.6,0.2,5.4c0,4.4,0,8.7,0,13.1c0,1-0.2,1.4-1.3,1.4c-2.1-0.1-4.1-0.1-6.2,0c-1.6,0.1-1.1-1-1.1-1.7
			c0-0.8-0.3-1.8,1.1-1.6c0.1,0,0.2,0,0.3,0c3.8,0,3.8,0,3.8-3.8c0-3.5,0-7.1,0-10.6c0-2.1-0.6-2.6-2.6-2.6c-3.6-0.1-4,0.3-4.6,3.9
			c-0.9,5-1.8,10.1-2.7,15.1c-0.1,0.5,0.1,1.2-0.7,1.3c-0.9,0.1-1.9,0.1-2.7-0.1c-0.4-0.1-0.1-0.8,0-1.2c0.6-3,1.1-6,1.7-9
			c0.2-0.9,0.2-1.8-0.1-2.7c-0.8-2.9-1.6-5.7-2.4-8.6c-0.1-0.5-1.1-1.5,0.2-1.7c1-0.1,2.5-0.8,3,0.9C54.9,69.8,55.3,71.4,55.9,73.2z
			"/>
		<path class="st0" d="M233.2,72.8c0.7-0.6,0.5-1.4,0.8-2c0.9-2.5,2.2-3.5,4.8-3.6c1.1,0,2.2-0.1,3.3,0.1c2.7,0.3,4,1.6,4.1,4.2
			c0.1,6.1,0,12.2,0.1,18.3c0,0.8-0.3,0.9-1,0.9c-2.2,0-4.5-0.1-6.7,0c-1.3,0-1-0.9-0.9-1.4c0.1-0.6-0.7-1.8,0.8-1.8
			c0.1,0,0.2,0,0.3,0c1.3,0,3.1,0.4,3.8-0.2c0.9-0.9,0.3-2.7,0.3-4.1c0-3.3,0-6.5,0-9.8c0-2.3-0.6-2.9-2.9-2.9
			c-3.4,0-3.7,0.2-4.4,3.6c-0.9,5-1.9,10-2.7,15.1c-0.2,1.4-0.8,1.8-2.1,1.6c-0.5-0.1-1.1,0-1.7,0c0.7-3.6,1.3-7,2-10.4
			c0.2-1,0.1-1.9-0.2-2.9c-0.8-2.9-1.6-5.9-2.5-8.8c-0.2-0.9-0.3-1.3,0.9-1.4c1.5,0,2.4,0.3,2.7,1.9
			C232.3,70.4,232.8,71.5,233.2,72.8z"/>
		<path class="st0" d="M34.6,80c0,3.2-0.1,6.3,0,9.5c0.1,1.6-1,1.2-1.8,1.2c-0.9,0-1.6,0.2-1.6-1.2c0.1-5.7,0-11.3,0.1-17
			c0-1.4-0.4-1.9-1.8-1.7c-1.8,0.2-4.3-0.8-5.3,0.4c-0.9,1-0.3,3.4-0.3,5.2c0,3.5,0,7,0,10.5c0,2.9-1.1,3.9-4,3.9c-0.3,0-0.7,0-1,0
			c-2,0-2.5-0.8-2-2.8c0.2-0.7,0.7-0.5,1.1-0.6c2.5-0.1,2.5-0.1,2.5-2.6c0-4.2,0-8.4,0-12.6c0-1.1-0.2-1.6-1.4-1.5
			c-1.6,0.2-0.9-1.1-0.9-1.8c-0.1-0.7-0.4-1.5,1-1.5c4.1,0.1,8.3,0,12.4,0c2,0,3,1,3,3.1C34.6,73.6,34.6,76.8,34.6,80z"/>
		<path class="st0" d="M85.9,67.4c1,0,1.9,0,2.9,0c0.7,0,0.9,0.5,1.1,1c1.9,3.4,3.9,6.8,5.8,10.2c0.2,0.4,0.5,0.8,0.8,1.3
			c1.4-0.8,1.6-2.1,1.6-3.5c0-2.6,0.1-5.2,0-7.8c-0.1-1.5,0.9-1.2,1.7-1.2c0.8,0,1.8-0.4,1.7,1.1c-0.1,2.8,0.1,5.6-0.2,8.3
			c-0.2,2-1.1,3.7-2.9,4.6c-0.8,0.4-0.8,0.7-0.4,1.3c1.5,2.5,2.9,5.1,4.4,7.6c-0.2,0.1-0.3,0.2-0.4,0.2c-2.3,0.5-3.7-0.4-4.8-2.6
			c-1.5-3.2-3.4-6.2-5.1-9.3c-0.2-0.4-0.3-0.9-0.8-0.9c-0.5,0-0.8,0.5-1,1c-0.4,0.8-0.5,1.7-0.5,2.5c0,2.8,0,5.6,0,8.3
			c0,1.2-0.7,1.1-1.4,0.9c-0.7-0.2-2.1,0.8-2.1-0.9c0-3,0-6.1,0.1-9.1c0.1-2.1,1-3.8,3-4.7c0.8-0.4,0.5-0.8,0.2-1.2
			c-1.1-1.9-2.2-3.8-3.2-5.7C86.2,68.6,85.8,68.2,85.9,67.4z"/>
		<path class="st0" d="M195.3,119.8c0,3.3-0.1,6.5,0,9.8c0,1.3-0.4,1.6-1.6,1.5c-2.4-0.1-4.8-0.1-7.2,0c-0.8,0-1.3-0.2-1.2-1.1
			c0-0.2,0-0.4,0-0.7c0-3.2,0-3.3,3.2-3.3c1.1,0,1-0.6,1-1.3c0-4.1,0-8.2,0-12.2c0-1.2-0.4-1.7-1.6-1.5c-1.6,0.3-2.2-0.2-2.1-2
			c0.2-3.2,0-3.2,3.2-3.2c5.5,0,6.1,0.6,6.1,6C195.3,114.4,195.3,117.1,195.3,119.8z"/>
		<path class="st0" d="M103.2,119.5c0,3.4,0,6.9,0,10.3c0,1-0.2,1.3-1.3,1.3c-4.3,0.1-4.3,0.1-4.3-4.1c0-4.8,0-9.7,0-14.5
			c0-1.2-0.4-1.6-1.6-1.6c-1.6,0.1-3.3,0-4.9,0c-0.3,0-0.6,0.1-0.8,0c-1.8-0.8-0.5-2.3-0.8-3.5c-0.1-0.5-0.6-1.6,0.8-1.6
			c3.2,0,6.4-0.1,9.6,0c2.1,0.1,3.2,1.3,3.2,3.5C103.2,112.7,103.2,116.1,103.2,119.5z"/>
		<path class="st0" d="M193.1,65.3c0-1.4,0.1-2.8,0-4.2c-0.1-1.5,1-1,1.7-1c0.7,0,1.8-0.5,1.7,1c-0.1,1.5,0.1,3.1,0,4.6
			c-0.1,1.2,0.2,1.7,1.6,1.6c2.2-0.1,4.5,0,6.7,0c0.6,0,1.2-0.2,1.1,0.9c-0.6,5.6-1.1,11.2-1.9,16.7c-0.5,3.6-2.9,5.7-6,5.8
			c-0.6,0-1.5,0.2-1.3-0.9c0.2-0.8-0.9-2.1,0.9-2.4c2-0.3,3-1.3,3.2-3.4c0.5-4,0.8-8,1.3-12c0.1-1.1-0.2-1.4-1.3-1.4
			c-2.1,0.1-4.3,0-6.4,0c-1,0-1.3-0.3-1.3-1.3C193.1,68,193.1,66.7,193.1,65.3z"/>
		<path class="st0" d="M106.9,65.3c0-1.4,0-2.8,0-4.2c0-1.5,1-1,1.7-1c0.7,0,1.8-0.5,1.7,1c0,1.5,0.1,3.1,0,4.6
			c-0.1,1.2,0.2,1.7,1.6,1.7c2.2-0.1,4.5,0,6.7,0c0.8,0,1.2,0.2,1,1.1c-0.6,5.4-1.1,10.8-1.8,16.2c-0.5,3.7-2.9,6-6.1,6.1
			c-0.6,0-1.5,0.2-1.3-0.8c0.2-0.8-0.9-2.1,0.8-2.4c2.1-0.4,3-1.3,3.3-3.5c0.5-4,0.9-8.1,1.3-12.2c0.1-0.9-0.2-1.1-1-1.1
			c-2.2,0-4.4-0.1-6.5,0c-1.2,0.1-1.5-0.4-1.4-1.5C107,67.9,106.9,66.6,106.9,65.3z"/>
		<path class="st0" d="M175.8,65.3c0-1.4,0-2.8,0-4.2c-0.1-1.5,1-0.9,1.7-1c0.7,0,1.7-0.5,1.7,1c-0.1,1.6,0,3.3,0,4.9
			c-0.1,1,0.4,1.3,1.3,1.3c2.2-0.1,4.5,0,6.7,0c1,0,1.4,0.1,1.3,1.4c-0.6,4.9-1,9.7-1.5,14.6c-0.4,4.1-2.1,6.5-5.2,7.3
			c-0.7,0.2-1.9,0.5-2.2,0c-0.4-0.7-0.2-1.8-0.2-2.7c0-0.6,0.6-0.4,0.9-0.4c1.8-0.3,2.8-1.4,3-3.1c0.5-4.2,0.9-8.3,1.4-12.5
			c0.1-0.9-0.3-1.1-1.1-1.1c-2.1,0-4.3-0.1-6.4,0c-1.2,0.1-1.5-0.4-1.4-1.5C175.9,67.9,175.8,66.6,175.8,65.3z"/>
		<path class="st0" d="M175.8,118.3c0-3.8,0-7.5,0-11.3c0-1.1,0.3-1.3,1.4-1.4c4.2,0,4.2,0,4.2,4.1c0,6.6,0,13.2,0,19.8
			c0,1.3-0.4,1.5-1.6,1.5c-4,0-4,0-4-4.1C175.8,124.1,175.8,121.2,175.8,118.3z"/>
		<path class="st0" d="M222.6,78.9c0,2.2,0.1,4.4,0,6.5c-0.2,3.3-2,5.1-5.3,5.2c-1.7,0.1-3.4,0-5.1,0c-1.5,0.1-1-1-1-1.7
			c0-0.7-0.4-1.7,1-1.6c1.4,0.1,2.8,0,4.2,0c1.9,0,2.9-0.9,2.9-2.7c0.1-3.7,0.1-7.4,0-11.1c0-1.9-1-2.7-2.9-2.8
			c-1.5-0.1-2.9-0.1-4.4,0c-1.4,0.1-0.9-1-0.9-1.6c0-0.7-0.6-1.8,0.9-1.8c1.8,0,3.6,0,5.4,0.1c3.1,0.2,4.8,1.8,5,4.9
			C222.7,74.5,222.6,76.7,222.6,78.9C222.6,78.9,222.6,78.9,222.6,78.9z"/>
		<path class="st0" d="M267.4,80c0,3.2-0.1,6.3,0,9.5c0.1,1.5-0.9,1.1-1.7,1.1c-0.8,0-1.7,0.4-1.7-1.1c0.1-5.6,0-11.2,0.1-16.8
			c0-1.7-0.5-2.1-2.1-2c-2.5,0.1-5,0-7.5,0.1c-1.5,0.1-1.1-0.9-1.2-1.7c0-0.8-0.3-1.7,1.2-1.7c3.2,0.1,6.4,0,9.6,0
			c2.3,0,3.2,1,3.2,3.3C267.4,73.8,267.4,76.9,267.4,80z"/>
		<path class="st0" d="M170,80c0,3.2-0.1,6.3,0,9.5c0.1,1.6-1,1.2-1.8,1.2c-0.9,0.1-1.6,0.2-1.6-1.2c0.1-5.7,0-11.4,0.1-17.1
			c0-1.2-0.3-1.6-1.5-1.6c-2.6,0.1-5.2-0.1-7.8,0.1c-1.4,0.1-1.4-0.6-1.4-1.7c0-0.9-0.2-1.8,1.3-1.7c3.1,0.1,6.2,0,9.3,0
			c2.6,0,3.5,0.9,3.5,3.4C170,73.9,170,76.9,170,80z"/>
		<path class="st0" d="M139.9,80c0,3.2-0.1,6.3,0,9.5c0.1,1.5-0.9,1.2-1.7,1.2c-0.8,0-1.7,0.4-1.7-1.1c0.1-5.7,0-11.4,0.1-17.2
			c0-1.3-0.4-1.7-1.7-1.7c-2.7,0.1-5.3,0-8,0.1c-1.4,0-1.1-0.9-1.1-1.6c0-0.8-0.5-1.8,1.1-1.8c3.3,0.1,6.5,0,9.8,0
			c2.2,0,3.1,1,3.1,3.3C139.9,73.8,139.9,76.9,139.9,80z"/>
		<path class="st0" d="M140.8,113.7c0,2.1-0.1,4.1,0,6.2c0,1.1-0.2,1.5-1.4,1.5c-4.3,0-4.3,0-4.3-4.3c0-3.3,0-6.6,0-10
			c0-1,0.2-1.4,1.3-1.4c4.4,0,4.4-0.1,4.4,4.4C140.8,111.3,140.8,112.5,140.8,113.7z"/>
		<path class="st0" d="M40.6,113.5c0-2.2,0-4.4,0-6.5c0-0.9,0.3-1.2,1.2-1.2c4.5-0.1,4.5-0.1,4.5,4.4c0,3.3,0,6.6,0,10
			c0,1-0.3,1.3-1.3,1.3c-4.5,0.1-4.4,0.1-4.4-4.3C40.6,115.9,40.6,114.7,40.6,113.5z"/>
		<path class="st0" d="M228.8,113.6c0,2.2,0,4.5,0,6.7c0,0.9-0.3,1.1-1.1,1.1c-4.5,0.2-4.5,0.2-4.5-4.4c0-3.3,0-6.6,0-10
			c0-1,0.3-1.3,1.3-1.3c4.3-0.1,4.3-0.1,4.3,4.2C228.8,111.2,228.8,112.4,228.8,113.6z"/>
		<path class="st0" d="M79.3,79.1c0,3.4-0.1,6.9,0,10.3c0.1,1.6-0.8,1.3-1.7,1.3c-1,0-1.7,0.1-1.7-1.3c0.1-6.9,0.1-13.7,0-20.6
			c0-1.7,0.9-1.3,1.8-1.4c1.1-0.1,1.6,0.1,1.6,1.5C79.3,72.2,79.3,75.7,79.3,79.1z"/>
		<path class="st0" d="M129.2,83c0,2.2-0.1,4.4,0,6.5c0.1,1.5-0.9,1.2-1.7,1.1c-0.7,0-1.8,0.5-1.8-1.1c0.1-4.4,0.1-8.8,0-13.2
			c0-1.4,0.9-1.1,1.6-1c0.7,0.1,1.9-0.6,1.8,1C129.2,78.5,129.2,80.8,129.2,83z"/>
		<path class="st0" d="M159.3,83c0,2.1-0.1,4.2,0,6.4c0.1,1.5-0.8,1.4-1.7,1.3c-0.8,0-1.8,0.4-1.8-1.2c0.1-4.3,0.1-8.6,0-12.9
			c0-1.6,0.9-1.2,1.8-1.3c0.9,0,1.8-0.2,1.7,1.3C159.2,78.7,159.3,80.8,159.3,83z"/>
		<path class="st0" d="M253.4,82.9c0-2.2,0.1-4.4,0-6.5c-0.1-1.2,0.7-1.2,1.4-1.1c0.7,0.1,2-0.7,2,1c0,4.5,0,8.9,0,13.4
			c0,1.7-1.3,0.8-2,1c-0.7,0.1-1.5,0.2-1.4-1.1C253.4,87.3,253.4,85.1,253.4,82.9z"/>
		<path class="st0" d="M45.1,73.8c0,1.7-0.1,3.5,0,5.2c0.1,1.5-0.8,1.2-1.7,1.2c-0.8,0-1.8,0.5-1.7-1.1c0.1-3.5,0.1-7.1,0-10.6
			c0-1.6,1-1.1,1.7-1.1c0.8,0,1.8-0.3,1.7,1.2C45,70.3,45.1,72.1,45.1,73.8z"/>
	</g>
	<g>
		<path class="st0" d="M335.9,134.3c-0.1,0.1-0.2,0.2-0.3,0.3c-0.4,0.2-0.9,0.2-1.4,0.2c-11.5,0-23,0-34.6,0c-5,0-8.5-2.6-9.6-7
			c-0.6-2.5-0.1-4.8,1.2-7c6.4-11,12.8-21.9,19.1-32.9c0.1-0.2,0.2-0.4,0.3-0.6c-6.6-11.4-13.2-22.7-19.7-34.1
			c-3.5-6.2,0.8-13.4,7.9-13.5c2.2,0,27.2,0,36.7,0c0,15.2,0,30.3,0,45.5c0,0.7,0,1.3-0.1,2c0,5.9,0,11.7,0.1,17.6
			c0,9.1,0,18.3,0,27.4C335.4,132.8,335.7,133.5,335.9,134.3z"/>
		<path class="st0" d="M335.5,39.6C335.5,39.6,335.5,39.6,335.5,39.6L335.5,39.6L335.5,39.6z"/>
		<path class="st0" d="M349.1,15.7c1.7-3,3.9-7.2,8.7-7.2c5.4,0,7,4.3,7.3,4.6c0.4,0.6,0.8,1.3,1.2,1.9c0.8,1.4,12.3,21.4,13.8,24.5
			c-14.9,0-29.8,0-44.6,0l0,0C335.7,39.2,345.9,21.3,349.1,15.7z"/>
		<path class="st0" d="M348,64.1c2.1,0,4.2,0,6.3,0c0.9,0,1.3,0.1,1.3,1.1c-0.1,3.2,0,6.5,0,9.7c0,0.9-0.3,1.3-1.2,1.3
			c-4.3,0-8.6,0-13,0c-0.8,0-1.1-0.2-1.1-1c0-3.3,0-6.7,0-10c0-0.9,0.4-1.1,1.2-1.1C343.6,64.1,345.8,64.1,348,64.1z"/>
		<path class="st0" d="M368.1,47.1c2.1,0,4.1,0,6.2,0c0.9,0,1.3,0.2,1.3,1.1c-0.1,3.2,0,6.5,0,9.7c0,0.8-0.3,1.1-1.1,1.1
			c-4.4,0-8.8,0-13.2,0c-0.7,0-1-0.3-1-1c0-3.3,0-6.6,0-9.9c0-0.9,0.4-1.1,1.2-1.1C363.7,47.2,365.9,47.1,368.1,47.1z"/>
		<path class="st0" d="M348,93.2c-2.1,0-4.2,0-6.3,0c-0.9,0-1.3-0.2-1.3-1.2c0.1-3.2,0-6.4,0-9.6c0-0.8,0.3-1.2,1.1-1.1
			c4.3,0,8.6,0,13,0c1,0,1.2,0.3,1.2,1.2c0,3.2,0,6.4,0,9.6c0,0.9-0.3,1.2-1.1,1.1C352.3,93.1,350.1,93.2,348,93.2z"/>
		<path class="st0" d="M348.1,47.1c2.1,0,4.2,0,6.3,0c0.9,0,1.1,0.3,1.1,1.1c0,3.2,0,6.5,0,9.7c0,0.8-0.2,1.1-1,1.1
			c-4.4,0-8.8,0-13.2,0c-0.7,0-1-0.3-1-1c0-3.3,0-6.6,0-9.9c0-0.9,0.4-1.1,1.2-1.1C343.7,47.2,345.9,47.1,348.1,47.1z"/>
		<path class="st0" d="M424.8,53.2c-0.6,1.1-22.6,39-24.6,42.3c3,4.6,22.7,35,23.6,36c0.9,2.2,0.2,3.1-2.2,3.1
			c-11.5,0-40.7,0-41.4,0c-0.7,1.3-14.2,25.9-15.3,26.7c-4.5,5.7-11.7,4.1-15.2-2c-4.5-7.9-9-15.8-13.6-23.7
			c-0.2-0.4-0.4-0.8-0.6-1.1c0.1-0.1,0.2-0.2,0.3-0.3c-0.2-0.7-0.5-1.4-0.3-2.2c3.6-5.4,7.2-10.9,10.8-16.3c4.6-7,9.2-14,13.8-21
			c0.3-0.5,0.6-1,0.9-1.6c-0.8,0-0.9-0.5-0.9-1.2v-9.7c0-0.7,0.2-1.3,1.1-1.3c2.6,0,5.1,0.1,7.7,0.1c1.1-1.6,2.2-3.3,3.2-4.9
			c-3.5,0-7-0.1-10.6,0c-0.9,0-1.3-0.2-1.3-1.3c0-3.2,0-6.5,0-9.7c0-0.9,0.3-1.2,1.2-1.2c4.2,0,8.4,0,12.7,0c1,0,1.4,0.3,1.4,1.4
			c-0.1,1.8,0,3.7,0,5.5c0.8-1.1,1.6-2.3,2.3-3.4c0.5-0.7,1-1.2,1.9-1.1c0.2,0,0.3,0,0.5-0.1c0-8.6,0-17.3,0-25.9
			c0-0.3,0-0.6-0.1-0.8c1.3,0,6.4-0.1,6.9-0.1c0.9,0,19.6,0.1,28.1,0c2.2,0,4.3,0.2,6.3,1.2c0.8,0.7,1.5,1.3,2.3,2
			c1.5,2,2.3,4.2,2.2,6.8C425.7,50.7,425.5,52,424.8,53.2z"/>
	</g>
</g>
</svg>
